<svg xmlns="http://www.w3.org/2000/svg" version="1.1" xmlns:xlink="http://www.w3.org/1999/xlink" width="1000" height="1000"><metadata><rdf:RDF xmlns:rdf="http://www.w3.org/1999/02/22-rdf-syntax-ns#" xmlns:dc="http://purl.org/dc/elements/1.1/"><rdf:Description><dc:creator>RealFaviconGenerator</dc:creator><dc:source>https://realfavicongenerator.net</dc:source></rdf:Description></rdf:RDF></metadata><g clip-path="url(#SvgjsClipPath1054)"><rect width="1000" height="1000" fill="#ffffff"></rect><g transform="matrix(10,0,0,10,0,0)"><svg xmlns="http://www.w3.org/2000/svg" viewBox="0 0 100 100" fill="none" stroke="#1a1a1a" stroke-linecap="round" stroke-linejoin="round" width="100" height="100"><circle cx="50" cy="50" r="40.0" stroke-width="8"></circle><g fill="#1a1a1a" stroke="none">
    <g transform="rotate(0.00 50 50)"><rect x="47.75" y="2.00" width="4.5" height="4" rx="1.12"></rect></g>
    <g transform="rotate(15.00 50 50)"><rect x="47.75" y="2.00" width="4.5" height="4" rx="1.12"></rect></g>
    <g transform="rotate(30.00 50 50)"><rect x="47.75" y="2.00" width="4.5" height="4" rx="1.12"></rect></g>
    <g transform="rotate(45.00 50 50)"><rect x="47.75" y="2.00" width="4.5" height="4" rx="1.12"></rect></g>
    <g transform="rotate(60.00 50 50)"><rect x="47.75" y="2.00" width="4.5" height="4" rx="1.12"></rect></g>
    <g transform="rotate(75.00 50 50)"><rect x="47.75" y="2.00" width="4.5" height="4" rx="1.12"></rect></g>
    <g transform="rotate(90.00 50 50)"><rect x="47.75" y="2.00" width="4.5" height="4" rx="1.12"></rect></g>
    <g transform="rotate(105.00 50 50)"><rect x="47.75" y="2.00" width="4.5" height="4" rx="1.12"></rect></g>
    <g transform="rotate(120.00 50 50)"><rect x="47.75" y="2.00" width="4.5" height="4" rx="1.12"></rect></g>
    <g transform="rotate(135.00 50 50)"><rect x="47.75" y="2.00" width="4.5" height="4" rx="1.12"></rect></g>
    <g transform="rotate(150.00 50 50)"><rect x="47.75" y="2.00" width="4.5" height="4" rx="1.12"></rect></g>
    <g transform="rotate(165.00 50 50)"><rect x="47.75" y="2.00" width="4.5" height="4" rx="1.12"></rect></g>
    <g transform="rotate(180.00 50 50)"><rect x="47.75" y="2.00" width="4.5" height="4" rx="1.12"></rect></g>
    <g transform="rotate(195.00 50 50)"><rect x="47.75" y="2.00" width="4.5" height="4" rx="1.12"></rect></g>
    <g transform="rotate(210.00 50 50)"><rect x="47.75" y="2.00" width="4.5" height="4" rx="1.12"></rect></g>
    <g transform="rotate(225.00 50 50)"><rect x="47.75" y="2.00" width="4.5" height="4" rx="1.12"></rect></g>
    <g transform="rotate(240.00 50 50)"><rect x="47.75" y="2.00" width="4.5" height="4" rx="1.12"></rect></g>
    <g transform="rotate(255.00 50 50)"><rect x="47.75" y="2.00" width="4.5" height="4" rx="1.12"></rect></g>
    <g transform="rotate(270.00 50 50)"><rect x="47.75" y="2.00" width="4.5" height="4" rx="1.12"></rect></g>
    <g transform="rotate(285.00 50 50)"><rect x="47.75" y="2.00" width="4.5" height="4" rx="1.12"></rect></g>
    <g transform="rotate(300.00 50 50)"><rect x="47.75" y="2.00" width="4.5" height="4" rx="1.12"></rect></g>
    <g transform="rotate(315.00 50 50)"><rect x="47.75" y="2.00" width="4.5" height="4" rx="1.12"></rect></g>
    <g transform="rotate(330.00 50 50)"><rect x="47.75" y="2.00" width="4.5" height="4" rx="1.12"></rect></g>
    <g transform="rotate(345.00 50 50)"><rect x="47.75" y="2.00" width="4.5" height="4" rx="1.12"></rect></g>
  </g><circle cx="50" cy="50" r="36" stroke-width="2.0"></circle><g stroke-width="1.0">
    <line x1="50.00" y1="45.00" x2="86.00" y2="50.00"></line>
    <line x1="51.29" y1="45.17" x2="15.23" y2="40.68"></line>
    <line x1="52.50" y1="45.67" x2="81.18" y2="68.00"></line>
    <line x1="53.54" y1="46.46" x2="24.54" y2="24.54"></line>
    <line x1="54.33" y1="47.50" x2="68.00" y2="81.18"></line>
    <line x1="54.83" y1="48.71" x2="40.68" y2="15.23"></line>
    <line x1="55.00" y1="50.00" x2="50.00" y2="86.00"></line>
    <line x1="54.83" y1="51.29" x2="59.32" y2="15.23"></line>
    <line x1="54.33" y1="52.50" x2="32.00" y2="81.18"></line>
    <line x1="53.54" y1="53.54" x2="75.46" y2="24.54"></line>
    <line x1="52.50" y1="54.33" x2="18.82" y2="68.00"></line>
    <line x1="51.29" y1="54.83" x2="84.77" y2="40.68"></line>
    <line x1="50.00" y1="55.00" x2="14.00" y2="50.00"></line>
    <line x1="48.71" y1="54.83" x2="84.77" y2="59.32"></line>
    <line x1="47.50" y1="54.33" x2="18.82" y2="32.00"></line>
    <line x1="46.46" y1="53.54" x2="75.46" y2="75.46"></line>
    <line x1="45.67" y1="52.50" x2="32.00" y2="18.82"></line>
    <line x1="45.17" y1="51.29" x2="59.32" y2="84.77"></line>
    <line x1="45.00" y1="50.00" x2="50.00" y2="14.00"></line>
    <line x1="45.17" y1="48.71" x2="40.68" y2="84.77"></line>
    <line x1="45.67" y1="47.50" x2="68.00" y2="18.82"></line>
    <line x1="46.46" y1="46.46" x2="24.54" y2="75.46"></line>
    <line x1="47.50" y1="45.67" x2="81.18" y2="32.00"></line>
    <line x1="48.71" y1="45.17" x2="15.23" y2="59.32"></line>
  </g><circle cx="50" cy="50" r="4" fill="#1a1a1a" stroke="none"></circle></svg></g></g><defs><clipPath id="SvgjsClipPath1054"><rect width="1000" height="1000" x="0" y="0" rx="500" ry="500"></rect></clipPath></defs></svg>